<svg id="Слой_1" data-name="Слой 1" xmlns="http://www.w3.org/2000/svg" viewBox="0 0 1000 1000"><defs><style>.cls-1,.cls-2{fill:#172643;}.cls-1{stroke:#172643;stroke-miterlimit:10;}</style></defs><title>фейсбукМонтажная область 1 копия 6</title><path class="cls-1" d="M724.42,512.51a253,253,0,0,0,4.29-46c0-94.95-52.47-176.81-128.46-215.91.73-17.47,1-123.74-100.65-127.65S398.94,231.85,399.79,250.59c-76,39.09-128.5,121-128.5,215.93a253,253,0,0,0,4.29,46c-56.35,35.9-91.17,85.23-91.17,139.7,0,37.62,16.6,72.8,45.43,102.79H770.15c28.84-30,45.44-65.17,45.44-102.79C815.59,597.74,780.77,548.41,724.42,512.51ZM499.8,154.62c56.89,2.17,51.64,66.3,51.64,66.3H448.59S442.91,152.45,499.8,154.62Z"/><path class="cls-2" d="M599.66,800.41s-9.85,79.34-99.66,76.66c-94.51-2.82-99.5-76.38-99.66-76.66"/></svg>