<svg id="Слой_1" data-name="Слой 1" xmlns="http://www.w3.org/2000/svg" viewBox="0 0 16 16"><defs><style>.cls-1{fill:#fe0;}.cls-2{fill:#ff0483;}.cls-3{fill:#6a91cc;}</style></defs><title>Монтажная область 1</title><path class="cls-1" d="M6,5.42a13,13,0,0,1,.63-2.77,7.05,7.05,0,0,1,.65-1.21,2.07,2.07,0,0,1,.33-.39A.82.82,0,0,1,8,.84c.71-.08,1.09.76,1.3,1.31a12.58,12.58,0,0,1,.56,2.17,19,19,0,0,1,.32,4.57,15.63,15.63,0,0,1-.87,4.7,6.81,6.81,0,0,1-.33.73,2.3,2.3,0,0,1-.36.52,1,1,0,0,1-.53.31A1,1,0,0,1,7.44,15a3,3,0,0,1-1.17-2,6.73,6.73,0,0,1-.19-2.62A3.6,3.6,0,0,0,6.4,12a4.43,4.43,0,0,0,.65,1.41.78.78,0,0,0,.7.29,1,1,0,0,0,.62-.55A6.71,6.71,0,0,0,9,11a15,15,0,0,0,.25-2.11A16,16,0,0,0,8.9,4.41a8.52,8.52,0,0,0-.34-1.12A1.77,1.77,0,0,0,8,2.4a.52.52,0,0,0-.3-.08.67.67,0,0,0-.42.25,3.55,3.55,0,0,0-.62,1c-.15.33-.23.68-.37,1A7.81,7.81,0,0,0,6,5.42Z"/><path class="cls-2" d="M10,4.88a7,7,0,0,1,.79-.15,4.75,4.75,0,0,1,1.55-.09.77.77,0,0,1,.58.48,1,1,0,0,1-.19.81,7,7,0,0,1-1.57,1.56A16.34,16.34,0,0,1,9.38,8.7a16.07,16.07,0,0,1-4.13,1.78,9.21,9.21,0,0,1-1.14.23A1.74,1.74,0,0,1,3,10.59a.45.45,0,0,1-.21-.22.65.65,0,0,1,0-.49,3.55,3.55,0,0,1,.57-1c.22-.29.5-.53.72-.81a8.43,8.43,0,0,1,.62-.67A13.18,13.18,0,0,0,2.61,9.26a7.07,7.07,0,0,0-.76,1.14,2.11,2.11,0,0,0-.19.47.85.85,0,0,0,0,.5c.26.67,1.19.61,1.77.53a11.72,11.72,0,0,0,2.18-.52A19.39,19.39,0,0,0,9.82,9.52a15.79,15.79,0,0,0,3.73-3A6,6,0,0,0,14,5.91a2,2,0,0,0,.29-.56,1,1,0,0,0,0-.62,1,1,0,0,0-.42-.52,3,3,0,0,0-2.32-.09,7.2,7.2,0,0,0-1.68.62"/><path class="cls-3" d="M6.16,4.79l.6.12-.57-.22Z"/><path class="cls-3" d="M11.85,8.13c.11.12.24.26.37.42a4.47,4.47,0,0,1,.9,1.26.77.77,0,0,1-.09.75,1,1,0,0,1-.79.27,6.93,6.93,0,0,1-2.15-.49,16,16,0,0,1-2-.83A16,16,0,0,1,4.42,7a7,7,0,0,1-.8-.84,1.75,1.75,0,0,1-.48-1,.63.63,0,0,1,.07-.3.69.69,0,0,1,.43-.24,3.76,3.76,0,0,1,1.16,0c.36,0,.71.14,1.07.17l.17,0,0-.13a10.15,10.15,0,0,0-2-.55,7.08,7.08,0,0,0-1.38,0,1.69,1.69,0,0,0-.49.09.84.84,0,0,0-.41.28c-.43.58.12,1.33.49,1.78A12.49,12.49,0,0,0,3.86,7.77a18.85,18.85,0,0,0,3.82,2.55,15.94,15.94,0,0,0,4.5,1.57A7.2,7.2,0,0,0,13,12a2.24,2.24,0,0,0,.63-.05,1.06,1.06,0,0,0,.54-.31,1.12,1.12,0,0,0,.22-.63A3,3,0,0,0,13.2,9,7,7,0,0,0,12,8"/></svg>