<svg id="Слой_1" data-name="Слой 1" xmlns="http://www.w3.org/2000/svg" viewBox="0 0 1000 1000"><defs><style>.cls-1{fill:#3b5999;}</style></defs><title>фейсбукМонтажная область 1 копия 2</title><path class="cls-1" d="M500,12C230.49,12,12,230.49,12,500S230.49,988,500,988,988,769.51,988,500,769.51,12,500,12ZM365.15,722.14a29.22,29.22,0,0,1-29.22,29.22H238.81a29.22,29.22,0,0,1-29.22-29.22V481.78a29.22,29.22,0,0,1,29.22-29.22h97.12a29.22,29.22,0,0,1,29.22,29.22ZM781.48,556.08a50.1,50.1,0,0,1-24.73,43.56,46.49,46.49,0,0,1,15.8,34.77c0,17.4-9.76,32.61-24.31,40.9a45.84,45.84,0,0,1,10.92,29.61c0,26.26-22.48,47.56-50.21,47.56-.92,0-1.84,0-2.74-.07s-1.55.07-2.33.07h-261a39.71,39.71,0,0,1-39.66-39.77V497.61A86,86,0,0,1,413.31,457h0s2.16-32.26,89.7-140l-.17.08.45-.42c1.69-2.08,3.39-4.17,5.14-6.3,11.54-14,23.08-28.4,25.74-47a179.66,179.66,0,0,0,2.24-29.1c-.51-27,12.71-45.89,40.29-44.76,19.39.79,33.46,9.38,40.29,30.21,12.48,38.1,6.06,101.07,1.12,118.63-5.68,20.17-17.39,50.29-26.53,72.74h152c25.88,0,46.87,21.55,46.87,48.12s-20,49.21-45.89,49.24C766.17,513.33,781.48,532.17,781.48,556.08Z"/></svg>