<svg id="Слой_1" data-name="Слой 1" xmlns="http://www.w3.org/2000/svg" viewBox="0 0 1000 1000"><defs><style>.cls-1{fill:#ed4956;}</style></defs><title>2Монтажная область 1</title><path class="cls-1" d="M500,12C230.49,12,12,230.49,12,500S230.49,988,500,988,988,769.51,988,500,769.51,12,500,12ZM787.09,574.16c-12,26.24-26.08,43.84-37.83,58.47-18.58,23.14-35.09,37.67-55,55a697.42,697.42,0,0,1-82.54,61.91q-5.94,3.77-11.94,7.41-8.34,5.06-16.84,9.88-9.15,5.19-18.45,10.08-9.94,5.24-20.06,10.13-10.74,5.21-21.65,10-5.68,2.5-11.42,4.92c-1,.43-1.94,1-3,1.31a38.92,38.92,0,0,1-3.81,1,24,24,0,0,1-6.72.33c-5.53-.5-10.53-3.22-15.55-5.39q-11.08-4.78-22-10-10.29-4.89-20.42-10.12-9.48-4.92-18.81-10.12-8.68-4.84-17.21-9.94-7.81-4.68-15.51-9.56a697.42,697.42,0,0,1-82.54-61.91c-19.93-17.35-36.44-31.88-55-55C239,618,224.86,600.4,212.91,574.16A231.72,231.72,0,0,1,192.27,471c1.87-48.73,19.16-83.47,24.07-92.86,10.1-19.27,28.49-54.4,68.79-75.66,26.5-14,51.2-16,65.34-17.2,13-1.07,38.3-2.91,68.78,6.88,14.71,4.73,38.12,12.56,58.47,34.39.61.66,1.22,1.33,1.82,2,1,1.16,2,2.33,3,3.53s1.85,2.31,2.75,3.5,1.69,2.28,2.5,3.44,1.53,2.24,2.27,3.37,1.38,2.17,2,3.27,1.24,2.09,1.83,3.15,1.1,2,1.63,3,1,1.88,1.43,2.83l.74,1.53c.12.26.23.51.35.76s.12.4.25.49a.17.17,0,0,0,.1,0c1,0,2.05.06,3.07.05a12.45,12.45,0,0,0,.92-1.69c.44-.92.9-1.84,1.36-2.75s1-2,1.54-2.93,1.14-2.07,1.74-3.09,1.28-2.15,1.95-3.22,1.42-2.23,2.16-3.32,1.58-2.29,2.4-3.42,1.74-2.33,2.65-3.48,1.9-2.36,2.89-3.51,2.08-2.38,3.16-3.54c20.35-21.83,43.76-29.66,58.47-34.39,30.48-9.79,55.82-7.95,68.78-6.88,14.14,1.17,38.84,3.21,65.34,17.2,40.3,21.26,58.69,56.39,68.79,75.66,4.91,9.39,22.2,44.13,24.07,92.86A231.72,231.72,0,0,1,787.09,574.16Z"/></svg>