<svg id="Слой_1" data-name="Слой 1" xmlns="http://www.w3.org/2000/svg" viewBox="0 0 1000 1000"><defs><style>.cls-1{fill:#172643;stroke:#172643;stroke-miterlimit:10;}</style></defs><title>фейсбукМонтажная область 1 копия 7</title><path class="cls-1" d="M845.4,755.46,652.6,578.15a282.78,282.78,0,0,0,49.33-160c0-157-127.26-284.24-284.24-284.24S133.46,261.21,133.46,418.19,260.71,702.42,417.69,702.42A282.75,282.75,0,0,0,579.17,652L755.05,844.9c13.2,14.59,32.4,22.71,52,20.89,13.56-1.26,28.7-6.16,41.52-19l.94-1C874.1,820.45,871.49,779.28,845.4,755.46ZM191.68,418.19c0-124.83,101.19-226,226-226s226,101.19,226,226-101.19,226-226,226S191.68,543,191.68,418.19Z"/></svg>